<?xml version="1.0" standalone="no"?>
<!DOCTYPE svg PUBLIC "-//W3C//DTD SVG 20010904//EN"
 "http://www.w3.org/TR/2001/REC-SVG-20010904/DTD/svg10.dtd">
<svg version="1.0" xmlns="http://www.w3.org/2000/svg"
 width="512.000000pt" height="512.000000pt" viewBox="0 0 512.000000 512.000000"
 preserveAspectRatio="xMidYMid meet">

<g transform="translate(0.000000,512.000000) scale(0.100000,-0.100000)"
fill="#000000" stroke="none">
<path d="M1968 5024 c-118 -28 -208 -96 -208 -155 0 -31 70 -104 1017 -1051
l1018 -1018 -1420 -2 -1420 -3 -50 -25 c-64 -32 -124 -92 -155 -155 -19 -40
-24 -66 -24 -135 -1 -74 3 -92 27 -137 36 -69 88 -120 154 -150 l53 -24 0
-245 0 -244 -95 0 c-88 0 -98 2 -120 25 -35 34 -33 69 5 85 68 28 130 129 130
210 0 92 -80 202 -166 228 -56 16 -412 16 -468 0 -86 -26 -166 -136 -166 -228
0 -81 62 -182 130 -210 30 -12 30 -13 30 -89 0 -236 144 -428 365 -486 40 -10
107 -15 207 -15 l148 0 0 -303 c0 -172 5 -329 11 -363 35 -194 186 -361 389
-430 52 -18 107 -19 1200 -19 1093 0 1148 1 1200 19 182 62 305 181 372 363
21 54 22 79 26 396 l3 337 148 0 c100 0 166 5 206 15 221 58 365 250 365 486
0 76 0 77 30 89 68 28 130 129 130 210 0 92 -80 202 -166 228 -56 16 -412 16
-468 0 -86 -26 -166 -136 -166 -228 0 -81 62 -182 130 -210 38 -16 40 -51 5
-85 -22 -23 -32 -25 -120 -25 l-95 0 0 244 0 245 53 24 c66 30 118 81 154 150
24 45 28 64 28 137 0 73 -4 92 -28 137 -15 29 -43 69 -63 89 -38 37 -125 84
-158 84 -14 0 -17 5 -12 23 32 118 28 248 -13 408 -58 218 -202 487 -401 745
l-78 101 67 67 c63 63 69 66 95 56 69 -26 163 -7 226 47 57 49 80 101 80 183
0 54 -5 74 -29 115 -39 67 -382 405 -441 436 -116 59 -266 5 -321 -116 -21
-44 -25 -129 -9 -171 10 -26 7 -32 -56 -95 l-67 -67 -101 78 c-424 327 -852
489 -1118 424z m362 -183 c482 -163 1036 -621 1381 -1144 202 -305 296 -547
287 -740 -2 -48 -9 -92 -14 -97 -6 -6 -367 348 -1014 995 -1142 1142 -1048
1028 -845 1022 92 -3 126 -9 205 -36z m1433 -199 c176 -176 187 -189 187 -224
0 -48 -30 -78 -79 -78 -32 0 -50 15 -223 188 -167 167 -188 192 -188 221 0 61
37 96 90 85 15 -3 99 -79 213 -192z m-170 -394 l-58 -58 -112 112 -113 113 57
57 58 58 112 -112 113 -113 -57 -57z m573 -1634 c53 -39 69 -71 69 -134 0 -63
-16 -95 -69 -134 -27 -21 -30 -21 -1584 -24 -1073 -2 -1568 0 -1594 8 -101 29
-140 168 -71 251 53 62 -55 59 1655 56 1565 -2 1567 -2 1594 -23z m-168 -1261
l-3 -808 -32 -67 c-44 -93 -100 -151 -191 -196 l-76 -37 -1136 0 -1136 0 -76
37 c-91 45 -147 103 -191 196 l-32 67 -3 808 -3 807 1441 0 1441 0 -3 -807z
m-3303 702 c16 -15 25 -36 25 -55 0 -19 -9 -40 -25 -55 -24 -25 -26 -25 -215
-25 -189 0 -191 0 -215 25 -16 15 -25 36 -25 55 0 19 9 40 25 55 24 25 26 25
215 25 189 0 191 0 215 -25z m4160 0 c16 -15 25 -36 25 -55 0 -19 -9 -40 -25
-55 -24 -25 -26 -25 -215 -25 -189 0 -191 0 -215 25 -16 15 -25 36 -25 55 0
19 9 40 25 55 24 25 26 25 215 25 189 0 191 0 215 -25z m-4295 -311 c0 -77 88
-189 166 -212 23 -7 85 -12 138 -12 l96 0 0 -81 0 -81 -162 4 c-153 4 -166 5
-214 30 -75 39 -107 70 -144 139 -27 51 -33 75 -38 145 l-5 84 82 0 c68 0 81
-3 81 -16z m4158 -67 c-9 -133 -61 -219 -170 -278 l-63 -34 -162 -3 -163 -4 0
81 0 81 96 0 c53 0 115 5 138 12 78 23 166 135 166 212 0 13 13 16 81 16 l82
0 -5 -83z"/>
<path d="M3760 1185 c0 -464 -3 -582 -14 -608 -17 -43 -68 -85 -111 -93 l-35
-6 0 -80 0 -80 47 7 c53 8 125 41 170 79 16 14 45 53 64 88 l34 63 3 603 3
602 -81 0 -80 0 0 -575z"/>
<path d="M1364 4118 c-101 -104 -125 -139 -148 -217 -20 -69 -20 -133 0 -202
22 -74 46 -111 130 -200 91 -96 109 -149 83 -244 -8 -30 -36 -65 -107 -138
l-96 -98 57 -57 57 -57 85 85 c99 98 137 153 159 229 20 69 20 133 0 202 -22
74 -46 112 -126 194 -75 78 -98 123 -98 187 1 66 30 115 124 208 47 46 86 89
86 95 0 14 -92 105 -106 105 -6 0 -51 -42 -100 -92z"/>
<path d="M2084 4118 c-101 -104 -125 -139 -148 -217 -20 -69 -20 -133 0 -202
22 -74 46 -111 130 -200 91 -96 109 -149 83 -244 -8 -30 -36 -65 -107 -138
l-96 -98 57 -57 57 -57 85 85 c99 98 137 153 159 229 20 69 20 133 0 202 -22
74 -46 112 -126 194 -75 78 -98 123 -98 187 1 66 30 115 124 208 47 46 86 89
86 95 0 14 -92 105 -106 105 -6 0 -51 -42 -100 -92z"/>
</g>
</svg>
